<?xml version="1.0" standalone="no"?>
<!DOCTYPE svg PUBLIC "-//W3C//DTD SVG 20010904//EN"
 "http://www.w3.org/TR/2001/REC-SVG-20010904/DTD/svg10.dtd">
<svg version="1.0" xmlns="http://www.w3.org/2000/svg"
 width="231.000000pt" height="140.000000pt" viewBox="0 0 231.000000 140.000000"
 preserveAspectRatio="xMidYMid meet">

<g transform="translate(0.000000,140.000000) scale(0.100000,-0.100000)"
fill="#000000" stroke="none">
<path d="M145 938 c-2 -7 -6 -38 -7 -68 l-3 -55 -65 -5 -65 -5 0 -105 0 -105
59 -3 c74 -4 146 30 210 98 67 72 88 119 84 193 l-3 62 -103 3 c-76 2 -104 -1
-107 -10z"/>
<path d="M371 775 c-18 -52 -112 -148 -176 -181 l-56 -29 3 -50 3 -50 105 0
105 0 3 62 3 62 62 3 62 3 0 105 0 105 -50 3 c-50 3 -51 2 -64 -33z"/>
<path d="M1690 710 c0 -40 4 -70 10 -70 6 0 10 30 10 70 0 40 -4 70 -10 70 -6
0 -10 -30 -10 -70z"/>
<path d="M1930 710 c0 -56 3 -70 15 -70 12 0 15 14 15 70 0 56 -3 70 -15 70
-12 0 -15 -14 -15 -70z"/>
<path d="M1990 770 c0 -5 7 -10 15 -10 8 0 15 5 15 10 0 6 -7 10 -15 10 -8 0
-15 -4 -15 -10z"/>
<path d="M2180 770 c0 -5 5 -10 10 -10 6 0 10 5 10 10 0 6 -4 10 -10 10 -5 0
-10 -4 -10 -10z"/>
<path d="M560 705 c0 -37 4 -65 10 -65 6 0 10 11 10 25 0 22 4 25 35 25 31 0
35 -3 35 -25 0 -16 6 -25 15 -25 12 0 15 14 15 65 0 50 -3 65 -14 65 -9 0 -16
-12 -18 -27 -3 -24 -8 -28 -33 -28 -25 0 -30 4 -33 28 -6 53 -22 26 -22 -38z"/>
<path d="M1068 753 c-23 -27 -28 -51 -18 -78 11 -28 53 -49 81 -40 26 8 24 24
-1 18 -42 -11 -79 54 -48 85 7 7 25 12 40 12 15 0 28 5 28 10 0 17 -66 11 -82
-7z"/>
<path d="M1816 748 c-19 -27 -21 -68 -3 -92 15 -21 78 -27 84 -8 3 7 -1 10
-10 6 -9 -3 -25 0 -37 6 -17 9 -20 19 -18 48 3 34 6 37 36 40 43 4 41 22 -2
22 -25 0 -39 -7 -50 -22z"/>
<path d="M1422 743 c-20 -43 19 -137 45 -109 4 5 2 11 -4 13 -16 6 -17 55 -1
71 9 9 9 12 0 12 -7 0 -12 7 -12 15 0 21 -17 19 -28 -2z"/>
<path d="M722 718 c-36 -36 3 -98 51 -82 21 7 20 8 -7 13 -44 9 -45 31 -2 31
23 0 36 5 36 13 0 19 -21 37 -45 37 -12 0 -26 -5 -33 -12z m48 -13 c0 -8 -9
-15 -20 -15 -20 0 -26 11 -13 23 12 13 33 7 33 -8z"/>
<path d="M833 706 c14 -21 14 -26 1 -45 -13 -18 -13 -21 -1 -21 8 0 18 8 22
18 6 16 7 16 19 0 20 -27 41 -23 22 3 -13 19 -13 24 1 45 13 21 14 24 0 24 -8
0 -18 -8 -22 -17 -6 -17 -7 -17 -19 0 -21 28 -41 22 -23 -7z"/>
<path d="M940 721 c0 -4 11 -6 25 -3 18 3 25 0 25 -12 0 -10 -9 -16 -25 -16
-14 0 -28 -7 -32 -16 -7 -20 21 -49 37 -39 9 6 8 10 -4 17 -18 10 -12 28 10
28 8 0 14 -9 14 -20 0 -11 7 -20 15 -20 19 0 21 60 3 78 -14 14 -68 16 -68 3z"/>
<path d="M1180 710 c-15 -28 -4 -59 26 -72 18 -9 28 -8 36 0 9 9 6 12 -15 12
-17 0 -27 5 -27 15 0 10 10 15 31 15 26 0 30 3 27 23 -4 32 -62 37 -78 7z m58
-8 c2 -7 -6 -12 -17 -12 -21 0 -27 11 -14 24 9 9 26 2 31 -12z"/>
<path d="M1290 684 c0 -24 5 -44 10 -44 6 0 10 10 10 23 0 30 24 62 38 53 7
-4 12 -23 12 -42 0 -19 5 -34 11 -34 6 0 9 17 7 43 l-3 42 -42 2 -43 2 0 -45z"/>
<path d="M1500 683 c0 -23 5 -43 10 -43 6 0 10 14 10 31 0 22 5 32 20 36 30 8
24 22 -10 21 -29 -1 -30 -3 -30 -45z"/>
<path d="M1580 721 c0 -4 11 -6 25 -3 18 3 25 0 25 -11 0 -10 -11 -17 -27 -19
-20 -2 -29 -9 -31 -24 -3 -24 25 -41 42 -24 7 7 4 10 -8 10 -22 0 -16 24 7 28
12 2 17 -3 17 -17 0 -12 6 -21 15 -21 19 0 21 60 3 78 -14 14 -68 16 -68 3z"/>
<path d="M1990 685 c0 -33 4 -45 15 -45 11 0 15 12 15 45 0 33 -4 45 -15 45
-11 0 -15 -12 -15 -45z"/>
<path d="M2050 684 c0 -32 4 -44 14 -44 10 0 16 13 18 38 2 25 8 37 18 37 10
0 16 -12 18 -37 2 -21 8 -38 13 -38 6 0 9 19 7 43 l-3 42 -42 2 -43 2 0 -45z"/>
<path d="M2180 685 c0 -25 5 -45 10 -45 6 0 10 20 10 45 0 25 -4 45 -10 45 -5
0 -10 -20 -10 -45z"/>
<path d="M2242 718 c-33 -33 13 -101 55 -83 17 7 16 8 -2 13 -23 5 -45 21 -45
33 0 15 33 40 46 35 8 -3 14 -1 14 4 0 14 -54 12 -68 -2z"/>
</g>
</svg>
